<svg width="35" height="36" viewBox="0 0 35 36" fill="none" xmlns="http://www.w3.org/2000/svg">
<g clip-path="url(#clip0_149_8)">
<path d="M27.1441 0.5H7.85591C3.51721 0.5 0 4.01721 0 8.35591V27.6441C0 31.9828 3.51721 35.5 7.85591 35.5H27.1441C31.4828 35.5 35 31.9828 35 27.6441V8.35591C35 4.01721 31.4828 0.5 27.1441 0.5Z" fill="#0B86CA"/>
<path d="M9.69866 15.048H13.3356V26.7834H9.69866V15.048ZM11.5535 9.21667C11.9702 9.21668 12.3776 9.3401 12.7242 9.57136C13.0708 9.80262 13.3412 10.1314 13.5012 10.5161C13.6612 10.9008 13.7037 11.3244 13.6233 11.7332C13.5429 12.1421 13.3432 12.518 13.0494 12.8135C12.7556 13.109 12.3808 13.3108 11.9724 13.3936C11.564 13.4763 11.1403 13.4363 10.7546 13.2785C10.369 13.1207 10.0387 12.8522 9.80545 12.5069C9.57221 12.1616 9.44646 11.7549 9.44407 11.3383C9.44247 11.0602 9.49585 10.7846 9.60115 10.5273C9.70644 10.2699 9.86157 10.036 10.0576 9.8388C10.2536 9.64163 10.4867 9.48517 10.7435 9.3784C11.0002 9.27163 11.2755 9.21667 11.5535 9.21667Z" fill="white"/>
<path d="M15.6633 15.0479H19.167V16.6482C19.5177 16.0497 20.0243 15.5576 20.6329 15.2245C21.2414 14.8914 21.9289 14.7298 22.6221 14.757C26.2591 14.757 26.9986 17.1816 26.9986 20.3458V26.7833H23.3616V21.1096C23.3616 19.7518 23.3616 17.9939 21.4704 17.9939C19.5792 17.9939 19.2882 19.4729 19.2882 21.0005V26.8075H15.6512L15.6633 15.0479Z" fill="white"/>
</g>
<defs>
<clipPath id="clip0_149_8">
<rect width="35" height="35" fill="white" transform="translate(0 0.5)"/>
</clipPath>
</defs>
</svg>
