<svg width="35" height="36" viewBox="0 0 35 36" fill="none" xmlns="http://www.w3.org/2000/svg">
<g clip-path="url(#clip0_149_14)">
<path d="M34.9972 26.618C34.9972 26.8095 34.9914 27.2254 34.9798 27.5462C34.9647 28.3029 34.903 29.058 34.7951 29.8071C34.6689 30.464 34.4558 31.1011 34.1614 31.7016C33.5123 32.9809 32.4722 34.0199 31.1922 34.6677C30.5882 34.9628 29.9475 35.176 29.2871 35.3015C28.5436 35.4073 27.7942 35.4678 27.0433 35.4826C26.7222 35.494 26.3063 35.4998 26.1169 35.4998L8.88348 35.497C8.69201 35.497 8.27647 35.4912 7.95529 35.4795C7.19858 35.4645 6.4435 35.4028 5.69436 35.2949C5.03754 35.1687 4.40045 34.9556 3.7999 34.6612C2.51943 34.0126 1.47927 32.9725 0.830735 31.692C0.536023 31.088 0.323341 30.4473 0.198333 29.7869C0.0924848 29.0433 0.0319808 28.294 0.0171569 27.5431C0.0069468 27.2344 0.00122724 26.9255 0 26.6166L0.0027451 9.38292C0.0027451 9.19145 0.00857843 8.77557 0.0202451 8.45474C0.0353216 7.69802 0.0969742 6.94295 0.204853 6.19381C0.331043 5.53698 0.544176 4.89988 0.838627 4.29934C1.4873 3.01914 2.52744 1.97924 3.80779 1.33086C4.41176 1.03561 5.05246 0.822348 5.71289 0.696746C6.45644 0.590862 7.20576 0.530358 7.95667 0.51557C8.27784 0.504246 8.69372 0.498413 8.88314 0.498413L26.1182 0.502531C26.31 0.502531 26.7256 0.508364 27.0464 0.520031C27.8031 0.535112 28.5582 0.596765 29.3074 0.704639C29.9642 0.830828 30.6013 1.04396 31.2018 1.33841C32.4811 1.98746 33.5202 3.02757 34.1679 4.30758C34.4632 4.91153 34.6765 5.55223 34.802 6.21268C34.9078 6.95624 34.9683 7.70555 34.9832 8.45645C34.9945 8.77763 35.0003 9.19351 35.0003 9.38292L34.9976 26.6163L34.9972 26.618Z" fill="url(#paint0_linear_149_14)"/>
<path d="M26.7716 8.78028C24.6193 6.6274 21.7579 5.33007 18.7203 5.12985C15.6827 4.92964 12.6758 5.84018 10.2596 7.69195C7.84331 9.54371 6.18238 12.2105 5.58602 15.1957C4.98966 18.1809 5.49851 21.2812 7.01784 23.9192L5.2373 30.4209L11.8907 28.6761C13.731 29.6781 15.793 30.2031 17.8884 30.2034H17.8936C20.3756 30.2033 22.8018 29.4674 24.8656 28.0886C26.9294 26.7098 28.538 24.7501 29.4883 22.4572C30.4385 20.1643 30.6875 17.6412 30.204 15.2068C29.7204 12.7724 28.5259 10.536 26.7716 8.78028ZM17.8946 28.0842H17.8905C16.0224 28.0844 14.1886 27.5824 12.5811 26.6306L12.2002 26.4045L8.25211 27.4397L9.30588 23.5915L9.05779 23.1968C7.82858 21.2379 7.2852 18.926 7.51308 16.6246C7.74096 14.3232 8.72718 12.1627 10.3167 10.4829C11.9062 8.80302 14.0089 7.69902 16.2942 7.34442C18.5796 6.98982 20.918 7.40472 22.9418 8.5239C24.9656 9.64308 26.5602 11.4031 27.4747 13.5272C28.3893 15.6514 28.5721 18.0192 27.9943 20.2586C27.4165 22.4979 26.1109 24.4818 24.2828 25.8982C22.4546 27.3147 20.2076 28.0835 17.895 28.0838L17.8946 28.0842ZM23.6147 20.274C23.3011 20.1172 21.7594 19.3585 21.4718 19.2539C21.1843 19.1492 20.9753 19.097 20.7663 19.4107C20.5574 19.7243 19.9562 20.4308 19.7733 20.6398C19.5904 20.8488 19.4075 20.8752 19.0939 20.7184C18.1693 20.3501 17.3159 19.8235 16.5722 19.1622C15.8865 18.5285 15.2986 17.7967 14.8276 16.9905C14.6448 16.6766 14.8081 16.507 14.9649 16.3506C15.1059 16.2102 15.2785 15.9844 15.4353 15.8016C15.5643 15.6431 15.67 15.467 15.749 15.2786C15.7906 15.1922 15.81 15.0967 15.8055 15.0008C15.8009 14.9049 15.7725 14.8117 15.7229 14.7296C15.6447 14.5728 15.0174 13.0297 14.7559 12.4021C14.5013 11.7906 14.2412 11.8733 14.0504 11.8641C13.8502 11.8555 13.6497 11.8519 13.4493 11.8531C13.2904 11.8572 13.134 11.8942 12.9901 11.9617C12.8462 12.0292 12.7178 12.1258 12.613 12.2453C12.2584 12.5811 11.9776 12.987 11.7886 13.4373C11.5995 13.8876 11.5063 14.3724 11.515 14.8607C11.515 16.4048 12.6388 17.8944 12.7956 18.1037C12.9524 18.313 15.0068 21.4794 18.1526 22.839C18.7365 23.0905 19.3333 23.311 19.9404 23.4995C20.5802 23.6939 21.2564 23.7364 21.9155 23.6237C22.518 23.5338 23.7708 22.8654 24.0323 22.1331C24.2374 21.6648 24.301 21.1466 24.2152 20.6425C24.1366 20.5118 23.9276 20.4332 23.614 20.2764L23.6147 20.274Z" fill="white"/>
</g>
<defs>
<linearGradient id="paint0_linear_149_14" x1="17.5002" y1="0.498413" x2="17.5002" y2="35.4998" gradientUnits="userSpaceOnUse">
<stop stop-color="#61FD7D"/>
<stop offset="1" stop-color="#2BB826"/>
</linearGradient>
<clipPath id="clip0_149_14">
<rect width="35" height="35" fill="white" transform="translate(0 0.5)"/>
</clipPath>
</defs>
</svg>
