<svg width="58" height="48" viewBox="0 0 58 48" fill="none" xmlns="http://www.w3.org/2000/svg">
<path d="M22.8993 47.5731C35.5462 47.5731 45.7986 37.0979 45.7986 24.176C45.7986 11.2541 35.5462 0.7789 22.8993 0.7789C10.2524 0.7789 0 11.2541 0 24.176C0 37.0979 10.2524 47.5731 22.8993 47.5731Z" fill="#660066"/>
<circle cx="22.9887" cy="23.5188" r="17.6229" fill="url(#paint0_linear_95_116)"/>
<path d="M32.7577 39.0624C32.6592 39.0624 32.5595 39.0624 32.462 39.0656C32.5256 39.0635 32.5902 39.0624 32.6549 39.0624H32.7577Z" fill="#330033"/>
<path d="M58 18.1464C58 20.8651 55.8432 23.0688 53.1824 23.0688H34.0938C34.0938 23.0688 34.0938 23.0709 34.0938 23.0731C33.5215 23.101 33.0659 23.5848 33.0659 24.176C33.0659 24.7673 33.5215 25.251 34.0938 25.279C34.0938 25.28 34.0938 25.2822 34.0938 25.2833H38.3896C41.0504 25.2833 43.2073 27.487 43.2073 30.2056C43.2073 32.9243 41.0504 35.128 38.3896 35.128H23.4285C23.3496 35.128 23.2697 35.128 23.1918 35.1248C23.1834 35.1248 23.176 35.1248 23.1676 35.1248C17.3684 34.984 12.7096 30.1358 12.7096 24.176C12.7096 18.2163 17.3684 13.3692 23.1676 13.2273C23.176 13.2273 23.1834 13.2273 23.1918 13.2273C23.2707 13.2251 23.3496 13.2241 23.4285 13.2241H53.1813C55.8421 13.2241 57.999 15.4278 57.999 18.1464H58Z" fill="#8F18B7"/>
<path d="M42.9148 4.02863H25.3287C23.736 4.02863 22.4449 5.34783 22.4449 6.97516C22.4449 8.60249 23.736 9.9217 25.3287 9.9217H42.9148C44.5075 9.9217 45.7987 8.60249 45.7987 6.97516C45.7987 5.34783 44.5075 4.02863 42.9148 4.02863Z" fill="#8F18B7"/>
<path d="M45.6008 38.4304H25.7063C23.9288 38.4304 22.4879 39.9026 22.4879 41.7188C22.4879 43.5349 23.9288 45.0071 25.7063 45.0071H45.6008C47.3783 45.0071 48.8192 43.5349 48.8192 41.7188C48.8192 39.9026 47.3783 38.4304 45.6008 38.4304Z" fill="#8F18B7"/>
<path d="M50.2649 34.1433C52.4009 34.1433 54.1324 32.3741 54.1324 30.1917C54.1324 28.0092 52.4009 26.24 50.2649 26.24C48.1289 26.24 46.3973 28.0092 46.3973 30.1917C46.3973 32.3741 48.1289 34.1433 50.2649 34.1433Z" fill="#660066"/>
<path d="M22.8993 28.1277C25.0353 28.1277 26.7669 26.3585 26.7669 24.1761C26.7669 21.9936 25.0353 20.2244 22.8993 20.2244C20.7633 20.2244 19.0317 21.9936 19.0317 24.1761C19.0317 26.3585 20.7633 28.1277 22.8993 28.1277Z" fill="white"/>
<defs>
<linearGradient id="paint0_linear_95_116" x1="7.47001" y1="21.3093" x2="39.0335" y2="26.8855" gradientUnits="userSpaceOnUse">
<stop stop-color="#FFF33B"/>
<stop offset="1" stop-color="#E93E3A"/>
</linearGradient>
</defs>
</svg>
