<svg width="51" height="51" viewBox="0 0 51 51" fill="none" xmlns="http://www.w3.org/2000/svg">
<path d="M46.3956 24.9846L31.5487 12.8799C31.1144 12.5252 30.5097 12.4455 29.9925 12.6768C29.4769 12.908 29.1487 13.4049 29.1487 13.9518V18.5908C26.4269 19.5955 23.7612 20.1033 21.2081 20.1033C12.0409 20.1033 6.57374 13.4846 5.95342 12.2768C5.6503 11.6236 4.87842 11.2971 4.17686 11.5111C3.46905 11.7299 3.04405 12.4268 3.19092 13.1283L3.22842 13.3143C4.46124 19.5283 9.13467 33.9799 25.8612 33.9799C26.9222 33.9799 28.0206 33.919 29.1472 33.7971V38.1658C29.1472 38.7143 29.4769 39.2111 29.9909 39.4424C30.1894 39.5299 30.3987 39.5721 30.605 39.5721C30.944 39.5721 31.28 39.458 31.5487 39.2393L46.3956 27.133C46.7237 26.8658 46.9128 26.4736 46.9128 26.0596C46.9128 25.6455 46.7237 25.2518 46.3956 24.9846Z" fill="#660066"/>
</svg>
