<svg width="46" height="46" viewBox="0 0 46 46" fill="none" xmlns="http://www.w3.org/2000/svg">
<circle cx="22.5378" cy="23.42" r="22.5" fill="#660066"/>
<path d="M18.1628 21.9616C19.3165 21.9616 20.4443 21.6195 21.4036 20.9785C22.3629 20.3375 23.1106 19.4265 23.5521 18.3606C23.9936 17.2947 24.1091 16.1218 23.884 14.9903C23.659 13.8587 23.1034 12.8193 22.2876 12.0035C21.4718 11.1877 20.4324 10.6321 19.3008 10.407C18.1693 10.182 16.9964 10.2975 15.9305 10.739C14.8646 11.1805 13.9535 11.9282 13.3126 12.8875C12.6716 13.8467 12.3295 14.9746 12.3295 16.1283C12.3295 17.6754 12.944 19.1591 14.038 20.2531C15.132 21.347 16.6157 21.9616 18.1628 21.9616ZM29.8295 24.8783C30.6947 24.8783 31.5406 24.6217 32.2601 24.141C32.9795 23.6602 33.5403 22.9769 33.8714 22.1775C34.2026 21.3781 34.2892 20.4984 34.1204 19.6498C33.9516 18.8011 33.5349 18.0215 32.923 17.4097C32.3112 16.7978 31.5316 16.3812 30.683 16.2123C29.8343 16.0435 28.9546 16.1302 28.1552 16.4613C27.3558 16.7924 26.6725 17.3532 26.1918 18.0727C25.711 18.7921 25.4545 19.638 25.4545 20.5033C25.4545 21.6636 25.9154 22.7764 26.7359 23.5969C27.5563 24.4173 28.6691 24.8783 29.8295 24.8783ZM35.6628 35.0866C36.0496 35.0866 36.4205 34.933 36.694 34.6595C36.9675 34.386 37.1211 34.0151 37.1211 33.6283C37.1199 32.2653 36.7368 30.93 36.0151 29.7737C35.2935 28.6175 34.2622 27.6867 33.0383 27.0869C31.8144 26.4871 30.4469 26.2423 29.0909 26.3804C27.735 26.5184 26.4449 27.0337 25.367 27.8679C23.9385 26.445 22.1208 25.4771 20.143 25.086C18.1651 24.6949 16.1158 24.8982 14.2533 25.6704C12.3909 26.4425 10.7988 27.7488 9.67784 29.4245C8.55686 31.1003 7.9572 33.0705 7.95447 35.0866C7.95447 35.4734 8.10811 35.8443 8.3816 36.1178C8.65509 36.3913 9.02603 36.5449 9.4128 36.5449H26.9128C27.2996 36.5449 27.6705 36.3913 27.944 36.1178C28.2175 35.8443 28.3711 35.4734 28.3711 35.0866" fill="white"/>
</svg>
