<svg width="93" height="93" viewBox="0 0 93 93" fill="none" xmlns="http://www.w3.org/2000/svg">
<path d="M78.2379 38.6146C78.2369 29.3334 70.843 21.8104 61.7228 21.8116C55.9191 21.8116 50.5465 24.9302 47.5716 30.0008C44.5958 24.9302 39.2231 21.8208 33.4199 21.8116C24.2996 21.8104 16.9055 29.3334 16.9045 38.6146C16.9045 54.6013 33.386 67.404 47.5716 75.095C61.7564 67.4044 78.2379 54.6013 78.2379 38.6146Z" fill="#F75478"/>
<path d="M61.7222 21.8116C60.6166 21.8116 59.5281 21.9278 58.4673 22.1461C66.0179 23.692 71.7045 30.4744 71.7054 38.6138C71.7054 53.3855 57.6355 65.4302 44.3064 73.244C45.4022 73.8864 46.4937 74.5107 47.5712 75.095C61.7561 67.4044 78.2375 54.6006 78.2375 38.6138C78.2366 29.3326 70.8424 21.8104 61.7222 21.8116Z" fill="#F64243"/>
<path d="M33.4208 20.2783C23.4572 20.277 15.3723 28.5199 15.3712 38.6154C15.3712 47.1357 19.7519 54.6919 25.8111 61.0254C31.8702 67.3589 39.6531 72.5458 46.8405 76.4426C47.0649 76.5642 47.316 76.6279 47.5712 76.6279C47.8264 76.6279 48.0776 76.5642 48.302 76.4426C55.4891 72.546 63.2723 67.359 69.3314 61.0254C75.3905 54.6919 79.7712 47.1357 79.7712 38.6154C79.7702 28.5199 71.6851 20.277 61.7216 20.2783C56.0945 20.2783 50.9524 23.0649 47.5712 27.5197C44.1892 23.0664 39.0477 20.2872 33.4238 20.2783C33.4228 20.2783 33.4219 20.2783 33.4208 20.2783ZM33.4177 23.345C38.6747 23.3532 43.5439 26.1662 46.2504 30.778C46.3858 31.0084 46.579 31.1995 46.8109 31.3322C47.0428 31.4649 47.3054 31.5348 47.5726 31.5348C47.8398 31.5348 48.1025 31.4649 48.3344 31.3322C48.5663 31.1995 48.7595 31.0084 48.8948 30.778C51.6008 26.1657 56.4671 23.345 61.7216 23.345C69.9985 23.3439 76.7036 30.1485 76.7045 38.6154C76.7045 46.0818 72.843 52.9178 67.1152 58.9051C61.5846 64.6862 54.3618 69.545 47.5711 73.2921C40.7801 69.5448 33.5578 64.6862 28.0271 58.9051C22.2993 52.9178 18.4379 46.0818 18.4379 38.6154C18.4388 30.1495 25.1421 23.3455 33.4177 23.345ZM68.4598 50.6664C68.4338 50.6661 68.4078 50.6672 68.382 50.6695C68.2578 50.679 68.1379 50.7186 68.0324 50.7849C67.927 50.8512 67.8394 50.9421 67.777 51.0499C65.2464 55.2833 61.3572 59.1093 57.0437 62.3791C56.9634 62.4401 56.896 62.5163 56.8452 62.6033C56.7944 62.6903 56.7612 62.7865 56.7476 62.8863C56.734 62.9862 56.7401 63.0877 56.7658 63.1852C56.7914 63.2826 56.836 63.3741 56.8969 63.4543C56.9579 63.5345 57.034 63.602 57.1211 63.6528C57.2081 63.7035 57.3042 63.7367 57.4041 63.7503C57.5039 63.764 57.6054 63.7578 57.7029 63.7322C57.8003 63.7066 57.8918 63.662 57.972 63.601C62.39 60.252 66.4158 56.3141 69.0917 51.8375C69.1629 51.7228 69.2026 51.5913 69.2067 51.4563C69.2108 51.3214 69.1792 51.1877 69.1151 51.0689C69.0509 50.9501 68.9566 50.8503 68.8415 50.7796C68.7264 50.709 68.5948 50.6699 68.4598 50.6664ZM54.0848 64.6371C53.938 64.6418 53.7955 64.6886 53.6745 64.7719C52.9041 65.2861 52.1296 65.7844 51.3536 66.2633C51.2627 66.3136 51.1831 66.3818 51.1194 66.4638C51.0557 66.5457 51.0093 66.6398 50.9831 66.7402C50.9568 66.8407 50.9513 66.9454 50.9667 67.048C50.9821 67.1507 51.0182 67.2491 51.0728 67.3374C51.1274 67.4257 51.1993 67.502 51.2843 67.5616C51.3693 67.6213 51.4654 67.6631 51.567 67.6845C51.6686 67.7058 51.7735 67.7064 51.8753 67.686C51.9771 67.6657 52.0736 67.6249 52.1592 67.5661C52.95 67.0781 53.7417 66.5725 54.528 66.0477C54.6691 65.9567 54.7765 65.8219 54.8335 65.664C54.8906 65.506 54.8942 65.3338 54.8439 65.1736C54.7936 65.0134 54.692 64.8742 54.5549 64.7772C54.4178 64.6803 54.2526 64.6311 54.0848 64.6371Z" fill="#1E2950"/>
<path d="M35.2196 27.32C33.7734 27.2905 32.2193 27.8044 30.7606 28.7943C29.302 29.7843 28.0069 31.2041 27.0451 32.8679C26.4179 33.9524 25.9481 35.1136 25.6624 36.285C25.3767 37.4565 25.2807 38.6154 25.38 39.6954C25.4793 40.7755 25.7719 41.7556 26.2411 42.5797C26.7102 43.4039 27.3467 44.056 28.1143 44.4988C28.882 44.9417 29.7657 45.1665 30.7149 45.1605C31.6642 45.1545 32.6604 44.9177 33.6466 44.4637C34.6329 44.0097 35.5899 43.3474 36.463 42.5146C37.3361 41.6818 38.1081 40.6948 38.735 39.6101C39.3622 38.5253 39.832 37.364 40.1175 36.1924C40.4031 35.0208 40.4988 33.8618 40.3993 32.7818C40.2998 31.7017 40.007 30.7216 39.5375 29.8976C39.0681 29.0735 38.4312 28.4216 37.6633 27.9791C36.9384 27.5615 36.1097 27.338 35.2196 27.32ZM29.7319 47.5218C28.7374 47.5217 27.7835 47.8192 27.0801 48.3489C26.3766 48.8786 25.9812 49.5972 25.9808 50.3465C25.9806 50.7178 26.0774 51.0854 26.2659 51.4284C26.4543 51.7715 26.7305 52.0831 27.0789 52.3457C27.4272 52.6082 27.8408 52.8165 28.296 52.9586C28.7513 53.1007 29.2392 53.1738 29.7319 53.1737C30.7266 53.1733 31.6803 52.8752 32.3833 52.345C33.0863 51.8148 33.481 51.096 33.4805 50.3465C33.4801 49.5975 33.085 48.8792 32.3821 48.3496C31.6792 47.8199 30.726 47.5222 29.7319 47.5218Z" fill="#FB87A4"/>
<path d="M31.0279 15.7442C22.9654 15.7431 15.9585 20.4138 12.4992 27.2292C12.4013 27.4094 12.3405 27.6073 12.3205 27.8114C12.3005 28.0154 12.3215 28.2214 12.3825 28.4172C12.4435 28.613 12.5431 28.7945 12.6754 28.9511C12.8078 29.1077 12.9702 29.2362 13.1531 29.3289C13.3359 29.4216 13.5355 29.4767 13.7401 29.491C13.9446 29.5052 14.15 29.4783 14.3439 29.4118C14.5379 29.3454 14.7165 29.2407 14.8693 29.1039C15.0221 28.9672 15.1459 28.8012 15.2334 28.6158C18.194 22.7828 24.1485 18.8099 31.0279 18.8108C31.2311 18.8137 31.4329 18.7762 31.6214 18.7004C31.81 18.6246 31.9816 18.5121 32.1263 18.3695C32.271 18.2268 32.3858 18.0568 32.4643 17.8694C32.5427 17.6819 32.5831 17.4807 32.5831 17.2775C32.5831 17.0743 32.5427 16.8731 32.4643 16.6857C32.3858 16.4982 32.271 16.3282 32.1263 16.1855C31.9816 16.0429 31.81 15.9304 31.6214 15.8546C31.4329 15.7788 31.2311 15.7413 31.0279 15.7442ZM11.9361 32.0119C11.5829 32.0285 11.2463 32.1666 10.9832 32.4029C10.7202 32.6392 10.5469 32.9592 10.4927 33.3086C10.292 34.4895 10.1873 35.7014 10.1872 36.9383C10.1841 37.1415 10.2215 37.3433 10.2971 37.5319C10.3726 37.7205 10.4849 37.8922 10.6275 38.037C10.77 38.1819 10.9399 38.2969 11.1273 38.3755C11.3146 38.4542 11.5158 38.4947 11.719 38.4949C11.9222 38.4951 12.1234 38.455 12.3109 38.3767C12.4984 38.2985 12.6686 38.1838 12.8114 38.0392C12.9542 37.8947 13.0669 37.7232 13.1428 37.5347C13.2188 37.3462 13.2565 37.1446 13.2539 36.9414C13.254 35.8768 13.3454 34.833 13.5174 33.8208C13.5591 33.5936 13.549 33.3599 13.4878 33.1371C13.4265 32.9144 13.3157 32.7084 13.1637 32.5344C13.0116 32.3605 12.8223 32.2232 12.6097 32.1327C12.3972 32.0422 12.1669 32.0009 11.9361 32.0119ZM80.2773 53.1761C80.0285 53.186 79.7859 53.2564 79.5704 53.3811C79.3549 53.5058 79.173 53.6811 79.0404 53.8918C76.0608 58.4873 72.1009 62.778 67.6393 66.6766C67.4791 66.8064 67.3467 66.9671 67.25 67.1491C67.1534 67.3312 67.0944 67.5309 67.0766 67.7362C67.0589 67.9416 67.0827 68.1485 67.1467 68.3444C67.2107 68.5404 67.3136 68.7214 67.4492 68.8767C67.5847 69.032 67.7502 69.1584 67.9357 69.2482C68.1212 69.3381 68.3229 69.3897 68.5288 69.3999C68.7347 69.41 68.9405 69.3786 69.134 69.3074C69.3275 69.2362 69.5046 69.1268 69.6548 68.9856C74.2778 64.9459 78.4332 60.467 81.613 55.5629C81.7708 55.3277 81.8605 55.0534 81.8719 54.7704C81.8834 54.4873 81.8163 54.2066 81.6779 53.9594C81.5396 53.7122 81.3355 53.5082 81.0883 53.3699C80.841 53.2316 80.5603 53.1645 80.2773 53.1761ZM63.9377 70.1476C63.5922 70.147 63.2566 70.263 62.9854 70.477C62.2938 71.0063 61.5932 71.5258 60.889 72.0373C60.5599 72.2764 60.3392 72.6364 60.2755 73.0382C60.2117 73.4401 60.3102 73.8507 60.5493 74.1799C60.7883 74.5091 61.1484 74.7299 61.5502 74.7936C61.952 74.8574 62.3627 74.759 62.6919 74.52C63.4161 73.9939 64.1355 73.4571 64.8481 72.9118C65.1066 72.7196 65.298 72.451 65.3952 72.144C65.4924 71.837 65.4906 71.5072 65.3898 71.2013C65.2891 70.8955 65.0946 70.6291 64.834 70.4399C64.5733 70.2508 64.2597 70.1485 63.9377 70.1476Z" fill="#47C5FE"/>
</svg>
