<svg width="46" height="46" viewBox="0 0 46 46" fill="none" xmlns="http://www.w3.org/2000/svg">
<g clip-path="url(#clip0_53_1432)">
<path d="M22.5379 1.74876C10.5689 1.74876 0.866699 11.451 0.866699 23.4199C0.866699 35.3889 10.5689 45.0911 22.5379 45.0911C34.5068 45.0911 44.2091 35.3889 44.2091 23.4199C44.2091 11.451 34.5068 1.74876 22.5379 1.74876ZM16.2537 33.1696C16.2537 33.7321 15.7615 34.1918 15.1603 34.1918H12.2767C11.6746 34.1918 11.1824 33.7321 11.1824 33.1696V24.399C11.1824 23.8374 11.6746 23.3769 12.2767 23.3769H15.1603C15.7615 23.3769 16.2537 23.8374 16.2537 24.399V33.1696ZM33.1726 27.5244C33.0047 27.6989 32.8788 27.9093 32.8045 28.1397C32.7301 28.3702 32.7094 28.6145 32.7437 28.8542C32.8246 29.4141 32.7631 30.1726 32.0828 30.7825C31.8788 30.9706 31.7259 31.2075 31.6385 31.4708C31.551 31.7341 31.5318 32.0153 31.5827 32.2881C31.7585 33.3428 31.2188 34.8369 26.5395 34.6163L20.4487 34.4713C20.396 34.4713 20.3441 34.466 20.2914 34.4599C19.7895 34.3975 17.166 34.0204 17.3646 32.855L17.3541 24.6987C17.354 24.4842 17.3965 24.2719 17.4789 24.0738L20.9189 17.3388C20.9708 17.237 20.9979 17.1244 20.998 17.0101V13.8522C20.9957 13.5709 21.0676 13.294 21.2065 13.0494C21.3454 12.8048 21.5463 12.6012 21.789 12.4591C22.2953 12.1699 23.0028 12.0197 23.7868 12.5962C25.3275 13.7388 25.3644 14.354 25.3644 14.354C25.3644 14.354 26.0614 16.4098 25.7679 18.281C25.7311 18.5127 25.7451 18.7497 25.8088 18.9755C25.8726 19.2013 25.9845 19.4106 26.137 19.5889C26.2895 19.7672 26.4789 19.9103 26.6921 20.0083C26.9053 20.1063 27.1372 20.1569 27.3719 20.1566H30.8769C30.9336 20.1564 30.9902 20.1593 31.0466 20.1653C31.5818 20.2242 34.0164 20.6426 33.1603 23.3742C33.0843 23.6166 33.0686 23.8738 33.1146 24.1236C33.1605 24.3735 33.2667 24.6083 33.424 24.8077C33.8925 25.394 34.2845 26.3775 33.1726 27.5244Z" fill="#4080FF"/>
<path d="M33.1603 23.3742C34.0163 20.6426 31.5783 20.2242 31.0465 20.1654C30.9902 20.1593 30.9335 20.1564 30.8769 20.1566H27.3718C27.1377 20.1565 26.9065 20.1057 26.6939 20.0077C26.4813 19.9098 26.2925 19.7669 26.1403 19.5891C25.9882 19.4112 25.8763 19.2025 25.8125 18.9773C25.7486 18.7521 25.7343 18.5158 25.7704 18.2845C26.064 16.4133 25.367 14.3576 25.367 14.3576C25.367 14.3576 25.3301 13.7344 23.7894 12.5997C23.0054 12.0214 22.2953 12.1735 21.7916 12.4626C21.5489 12.6047 21.3479 12.8084 21.2091 13.0529C21.0702 13.2975 20.9983 13.5744 21.0006 13.8557V17.0136C21.0005 17.1279 20.9734 17.2405 20.9215 17.3423L17.4815 24.0774C17.3991 24.2754 17.3566 24.4878 17.3567 24.7023L17.3672 32.8585C17.1686 34.0204 19.7921 34.401 20.294 34.4634C20.3467 34.4695 20.3986 34.4731 20.4513 34.4748L26.5421 34.6198C31.2214 34.8369 31.7637 33.3419 31.5853 32.2916C31.5344 32.0189 31.5536 31.7376 31.6411 31.4743C31.7285 31.211 31.8814 30.9742 32.0854 30.7861C32.7657 30.1796 32.8272 29.4176 32.7463 28.8577C32.7111 28.6177 32.7311 28.3728 32.805 28.1417C32.8789 27.9106 33.0046 27.6995 33.1726 27.5244C34.2826 26.3775 33.8907 25.394 33.4257 24.8077C33.2682 24.6084 33.1616 24.3737 33.1154 24.1239C33.0691 23.8741 33.0845 23.6167 33.1603 23.3742ZM15.1603 23.3769H12.2766C11.6746 23.3769 11.1824 23.8374 11.1824 24.3991V33.1696C11.1824 33.7321 11.6746 34.1918 12.2766 34.1918H15.1603C15.7615 34.1918 16.2537 33.7321 16.2537 33.1696V24.3991C16.2537 23.8374 15.7615 23.3769 15.1603 23.3769Z" fill="white"/>
</g>
<defs>
<clipPath id="clip0_53_1432">
<rect width="45" height="45" fill="white" transform="translate(0.0378418 0.919952)"/>
</clipPath>
</defs>
</svg>
